<svg width="94" height="22" viewBox="0 0 94 22" fill="none" xmlns="http://www.w3.org/2000/svg">
<path d="M16.86 16.14H6.36002L4.29002 21H0.27002L9.72002 0H13.56L23.04 21H18.96L16.86 16.14ZM15.57 13.08L11.61 3.9L7.68002 13.08H15.57Z" fill="#B17955"/>
<path d="M25.8403 4.98H29.5903V11.49H37.6603V4.98H41.4103V21H37.6603V14.67H29.5903V21H25.8403V4.98Z" fill="#B17955"/>
<path d="M52.406 4.8C54.766 4.8 56.566 5.37 57.806 6.51C59.066 7.63 59.696 9.33 59.696 11.61V21H56.156V19.05C55.696 19.75 55.036 20.29 54.176 20.67C53.336 21.03 52.316 21.21 51.116 21.21C49.916 21.21 48.866 21.01 47.966 20.61C47.066 20.19 46.366 19.62 45.866 18.9C45.386 18.16 45.146 17.33 45.146 16.41C45.146 14.97 45.676 13.82 46.736 12.96C47.816 12.08 49.506 11.64 51.806 11.64H55.946V11.4C55.946 10.28 55.606 9.42 54.926 8.82C54.266 8.22 53.276 7.92 51.956 7.92C51.056 7.92 50.166 8.06 49.286 8.34C48.426 8.62 47.696 9.01 47.096 9.51L45.626 6.78C46.466 6.14 47.476 5.65 48.656 5.31C49.836 4.97 51.086 4.8 52.406 4.8ZM51.896 18.48C52.836 18.48 53.666 18.27 54.386 17.85C55.126 17.41 55.646 16.79 55.946 15.99V14.13H52.076C49.916 14.13 48.836 14.84 48.836 16.26C48.836 16.94 49.106 17.48 49.646 17.88C50.186 18.28 50.936 18.48 51.896 18.48Z" fill="#B17955"/>
<path d="M77.0264 8.16H71.4164V21H67.6664V8.16H62.0264V4.98H77.0264V8.16Z" fill="#B17955"/>
<path d="M85.7166 4.8C88.0766 4.8 89.8766 5.37 91.1166 6.51C92.3766 7.63 93.0066 9.33 93.0066 11.61V21H89.4666V19.05C89.0066 19.75 88.3466 20.29 87.4866 20.67C86.6466 21.03 85.6266 21.21 84.4266 21.21C83.2266 21.21 82.1766 21.01 81.2766 20.61C80.3766 20.19 79.6766 19.62 79.1766 18.9C78.6966 18.16 78.4566 17.33 78.4566 16.41C78.4566 14.97 78.9866 13.82 80.0466 12.96C81.1266 12.08 82.8166 11.64 85.1166 11.64H89.2566V11.4C89.2566 10.28 88.9166 9.42 88.2366 8.82C87.5766 8.22 86.5866 7.92 85.2666 7.92C84.3666 7.92 83.4766 8.06 82.5966 8.34C81.7366 8.62 81.0066 9.01 80.4066 9.51L78.9366 6.78C79.7766 6.14 80.7866 5.65 81.9666 5.31C83.1466 4.97 84.3966 4.8 85.7166 4.8ZM85.2066 18.48C86.1466 18.48 86.9766 18.27 87.6966 17.85C88.4366 17.41 88.9566 16.79 89.2566 15.99V14.13H85.3866C83.2266 14.13 82.1466 14.84 82.1466 16.26C82.1466 16.94 82.4166 17.48 82.9566 17.88C83.4966 18.28 84.2466 18.48 85.2066 18.48Z" fill="#B17955"/>
</svg>
