<svg width="118" height="28" viewBox="0 0 118 28" fill="none" xmlns="http://www.w3.org/2000/svg">
<path d="M0.417969 11.43H15.418V13.89H0.417969V11.43Z" fill="black"/>
<path d="M34.389 12.15H30.489V21H26.649V0H30.489V8.79H34.509L40.539 0H44.679L37.509 10.17L44.949 21H40.539L34.389 12.15Z" fill="black"/>
<path d="M62.0912 4.98L54.5912 22.29C53.8912 24.03 53.0412 25.25 52.0412 25.95C51.0412 26.67 49.8312 27.03 48.4112 27.03C47.6112 27.03 46.8212 26.9 46.0412 26.64C45.2612 26.38 44.6212 26.02 44.1212 25.56L45.6212 22.8C45.9812 23.14 46.4012 23.41 46.8812 23.61C47.3812 23.81 47.8812 23.91 48.3812 23.91C49.0412 23.91 49.5812 23.74 50.0012 23.4C50.4412 23.06 50.8412 22.49 51.2012 21.69L51.4712 21.06L44.4812 4.98H48.3812L53.4212 16.83L58.4912 4.98H62.0912Z" fill="black"/>
<path d="M73.8076 21L69.6976 15.45L65.5576 21H61.4176L67.6576 12.87L61.6876 4.98H65.8576L69.7876 10.23L73.7176 4.98H77.7676L71.7676 12.81L78.0376 21H73.8076Z" fill="black"/>
<path d="M80.7212 4.98H84.4712V11.49H92.5412V4.98H96.2912V21H92.5412V14.67H84.4712V21H80.7212V4.98Z" fill="black"/>
<path d="M101.317 4.98H105.067V15.54L113.917 4.98H117.337V21H113.587V10.44L104.767 21H101.317V4.98Z" fill="black"/>
</svg>
