<svg width="24" height="24" viewBox="0 0 24 24" fill="none" xmlns="http://www.w3.org/2000/svg">
<g clip-path="url(#clip0_15_90)">
<path d="M11.5 24H12.5C17.94 24 20.65 24 22.33 22.32C24 20.64 24 17.92 24 12.5V11.48C24 6.08 24 3.36 22.33 1.68C20.65 0 17.93 0 12.5 0H11.5C6.06 0 3.35 0 1.67 1.68C0 3.36 0 6.08 0 11.5V12.52C0 17.92 0 20.64 1.68 22.32C3.36 24 6.08 24 11.5 24Z" fill="#878B90"/>
<path d="M4.9704 11.0368C8.76072 9.38577 11.2876 8.29723 12.551 7.77134C16.1626 6.26963 16.9121 6.00882 17.4016 6.00009C17.5092 5.99826 17.7489 6.02487 17.9053 6.15141C18.0353 6.25805 18.0719 6.40227 18.0902 6.50343C18.1065 6.60459 18.1288 6.83513 18.1105 7.0151C17.9155 9.07073 17.0685 14.0591 16.6379 16.3615C16.4571 17.3357 16.0976 17.6623 15.7502 17.6942C14.9946 17.7637 14.4217 17.1954 13.6905 16.7161C12.5469 15.966 11.901 15.4992 10.7899 14.7674C9.50617 13.9216 10.339 13.4566 11.0702 12.6969C11.2611 12.4981 14.5883 9.47251 14.6513 9.19809C14.6594 9.16376 14.6676 9.03579 14.5904 8.96835C14.5152 8.90071 14.4034 8.92387 14.3222 8.94215C14.2064 8.96815 12.3803 10.1763 8.83781 12.5665C8.31984 12.9228 7.85064 13.0965 7.42814 13.0873C6.96501 13.0774 6.07132 12.8249 5.4071 12.6092C4.5946 12.3445 3.9466 12.2045 4.00348 11.755C4.03192 11.521 4.35494 11.2815 4.9704 11.0368Z" fill="white"/>
</g>
<defs>
<clipPath id="clip0_15_90">
<rect width="24" height="24" fill="white"/>
</clipPath>
</defs>
</svg>
